<svg width="469.333" height="469.333" xmlns="http://www.w3.org/2000/svg">

 <g>
  <title>Layer 1</title>
  <g id="svg_1">
   <g id="svg_2">
    <g id="svg_3">
     <path fill="#909090" id="svg_4" d="m160,0l-21.333,0c-5.896,0 -10.667,4.771 -10.667,10.667l0,117.333l-117.333,0c-5.896,0 -10.667,4.771 -10.667,10.667l0,21.333c0,5.896 4.771,10.667 10.667,10.667l149.333,0c5.896,0 10.667,-4.771 10.667,-10.667l0,-149.333c0,-5.896 -4.771,-10.667 -10.667,-10.667z"/>
     <path fill="#909090" id="svg_5" d="m458.667,128l-117.334,0l0,-117.333c0,-5.896 -4.77,-10.667 -10.666,-10.667l-21.333,0c-5.896,0 -10.667,4.771 -10.667,10.667l0,149.333c0,5.896 4.771,10.667 10.667,10.667l149.333,0c5.896,0 10.667,-4.771 10.667,-10.667l0,-21.333c-0.001,-5.896 -4.771,-10.667 -10.667,-10.667z"/>
     <path fill="#909090" id="svg_6" d="m458.667,298.667l-149.334,0c-5.896,0 -10.667,4.771 -10.667,10.667l0,149.333c0,5.896 4.771,10.667 10.667,10.667l21.333,0c5.896,0 10.667,-4.771 10.667,-10.667l0,-117.334l117.333,0c5.896,0 10.667,-4.771 10.667,-10.667l0,-21.333c0,-5.896 -4.77,-10.666 -10.666,-10.666z"/>
     <path fill="#909090" id="svg_7" d="m160,298.667l-149.333,0c-5.896,0 -10.667,4.77 -10.667,10.666l0,21.333c0,5.896 4.771,10.667 10.667,10.667l117.333,0l0,117.333c0,5.896 4.771,10.667 10.667,10.667l21.333,0c5.896,0 10.667,-4.771 10.667,-10.667l0,-149.333c0,-5.896 -4.771,-10.666 -10.667,-10.666z"/>
    </g>
   </g>
  </g>
  <g id="svg_8"/>
  <g id="svg_9"/>
  <g id="svg_10"/>
  <g id="svg_11"/>
  <g id="svg_12"/>
  <g id="svg_13"/>
  <g id="svg_14"/>
  <g id="svg_15"/>
  <g id="svg_16"/>
  <g id="svg_17"/>
  <g id="svg_18"/>
  <g id="svg_19"/>
  <g id="svg_20"/>
  <g id="svg_21"/>
  <g id="svg_22"/>
 </g>
</svg>