<svg width="447.243" height="447.243" xmlns="http://www.w3.org/2000/svg">

 <g>
  <title>Layer 1</title>
  <g id="svg_1">
   <g id="svg_2">
    <path fill="#f4f4f4" id="svg_3" d="m420.361,192.229c-1.83,-0.297 -3.682,-0.434 -5.535,-0.41l-315.521,0l6.88,-3.2c6.725,-3.183 12.843,-7.515 18.08,-12.8l88.48,-88.48c11.653,-11.124 13.611,-29.019 4.64,-42.4c-10.441,-14.259 -30.464,-17.355 -44.724,-6.914c-1.152,0.844 -2.247,1.764 -3.276,2.754l-160,160c-12.504,12.49 -12.515,32.751 -0.025,45.255c0.008,0.008 0.017,0.017 0.025,0.025l160,160c12.514,12.479 32.775,12.451 45.255,-0.063c0.982,-0.985 1.899,-2.033 2.745,-3.137c8.971,-13.381 7.013,-31.276 -4.64,-42.4l-88.32,-88.64c-4.695,-4.7 -10.093,-8.641 -16,-11.68l-9.6,-4.32l314.24,0c16.347,0.607 30.689,-10.812 33.76,-26.88c2.829,-17.445 -9.019,-33.88 -26.464,-36.71z"/>
   </g>
  </g>
  <g id="svg_4"/>
  <g id="svg_5"/>
  <g id="svg_6"/>
  <g id="svg_7"/>
  <g id="svg_8"/>
  <g id="svg_9"/>
  <g id="svg_10"/>
  <g id="svg_11"/>
  <g id="svg_12"/>
  <g id="svg_13"/>
  <g id="svg_14"/>
  <g id="svg_15"/>
  <g id="svg_16"/>
  <g id="svg_17"/>
  <g id="svg_18"/>
 </g>
</svg>