<svg width="80.13" height="80.13" xmlns="http://www.w3.org/2000/svg">

 <g>
  <title>Layer 1</title>
  <g id="svg_1">
   <path fill="#454150" id="svg_2" d="m48.355,17.922c3.705,2.323 6.303,6.254 6.776,10.817c1.511,0.706 3.188,1.112 4.966,1.112c6.491,0 11.752,-5.261 11.752,-11.751c0,-6.491 -5.261,-11.752 -11.752,-11.752c-6.429,0.002 -11.644,5.169 -11.742,11.574zm-7.699,24.062c6.491,0 11.752,-5.262 11.752,-11.752s-5.262,-11.751 -11.752,-11.751c-6.49,0 -11.754,5.262 -11.754,11.752s5.264,11.751 11.754,11.751zm4.985,0.801l-9.972,0c-8.297,0 -15.047,6.751 -15.047,15.048l0,12.195l0.031,0.191l0.84,0.263c7.918,2.474 14.797,3.299 20.459,3.299c11.059,0 17.469,-3.153 17.864,-3.354l0.785,-0.397l0.084,0l0,-12.197c0.003,-8.297 -6.747,-15.048 -15.044,-15.048zm19.443,-12.132l-9.895,0c-0.107,3.959 -1.797,7.524 -4.47,10.088c7.375,2.193 12.771,9.032 12.771,17.11l0,3.758c9.77,-0.358 15.4,-3.127 15.771,-3.313l0.785,-0.398l0.084,0l0,-12.199c0,-8.296 -6.75,-15.046 -15.046,-15.046zm-45.049,-0.8c2.299,0 4.438,-0.671 6.25,-1.814c0.576,-3.757 2.59,-7.04 5.467,-9.276c0.012,-0.22 0.033,-0.438 0.033,-0.66c0,-6.491 -5.262,-11.752 -11.75,-11.752c-6.492,0 -11.752,5.261 -11.752,11.752c0,6.488 5.26,11.75 11.752,11.75zm10.554,10.888c-2.66,-2.551 -4.344,-6.097 -4.467,-10.032c-0.367,-0.027 -0.73,-0.056 -1.104,-0.056l-9.971,0c-8.297,0 -15.047,6.75 -15.047,15.046l0,12.197l0.031,0.188l0.84,0.265c6.352,1.983 12.021,2.897 16.945,3.185l0,-3.683c0.002,-8.078 5.396,-14.915 12.773,-17.11z"/>
  </g>
  <g id="svg_3"/>
  <g id="svg_4"/>
  <g id="svg_5"/>
  <g id="svg_6"/>
  <g id="svg_7"/>
  <g id="svg_8"/>
  <g id="svg_9"/>
  <g id="svg_10"/>
  <g id="svg_11"/>
  <g id="svg_12"/>
  <g id="svg_13"/>
  <g id="svg_14"/>
  <g id="svg_15"/>
  <g id="svg_16"/>
  <g id="svg_17"/>
 </g>
</svg>