<svg width="512" height="512.002" xmlns="http://www.w3.org/2000/svg">
 <g>
  <title>Layer 1</title>
  <path d="m250.20128,246.63281c33.88282,0 63.22266,-12.15234 87.19532,-36.1289c23.97265,-23.97266 36.125,-53.30469 36.125,-87.19141c0,-33.875 -12.15235,-63.21094 -36.12891,-87.19141c-23.97656,-23.96875 -53.3125,-36.12109 -87.19141,-36.12109c-33.88672,0 -63.21875,12.15234 -87.1914,36.125s-36.12891,53.30859 -36.12891,87.1875c0,33.88672 12.15625,63.22266 36.13281,87.19531c23.97656,23.96875 53.3125,36.125 87.1875,36.125zm0,0" id="svg_1" fill="#f4f4f4"/>
  <path d="m465.97863,393.70313c-0.69141,-9.97657 -2.08985,-20.85938 -4.14844,-32.35157c-2.07813,-11.57812 -4.75391,-22.52343 -7.95703,-32.52734c-3.3086,-10.33984 -7.8086,-20.55078 -13.3711,-30.33594c-5.77343,-10.15625 -12.55468,-19 -20.16406,-26.27734c-7.95703,-7.61328 -17.69922,-13.73438 -28.96484,-18.19922c-11.22656,-4.44141 -23.66797,-6.69141 -36.97656,-6.69141c-5.22657,0 -10.28125,2.14453 -20.04297,8.5c-6.00782,3.91797 -13.03516,8.44922 -20.87891,13.46094c-6.70703,4.27344 -15.79297,8.27734 -27.01562,11.90234c-10.94922,3.54297 -22.06641,5.33985 -33.03907,5.33985c-10.97265,0 -22.08593,-1.79688 -33.04687,-5.33985c-11.21094,-3.62109 -20.29688,-7.625 -26.9961,-11.89843c-7.76953,-4.96485 -14.80078,-9.4961 -20.89843,-13.46875c-9.75,-6.35547 -14.8086,-8.5 -20.03516,-8.5c-13.3125,0 -25.75,2.2539 -36.97266,6.69921c-11.25781,4.45704 -21.0039,10.57813 -28.96875,18.19922c-7.60546,7.28125 -14.39062,16.1211 -20.15625,26.27344c-5.55859,9.78516 -10.05859,19.99219 -13.37109,30.33985c-3.19922,10.0039 -5.875,20.94531 -7.95312,32.52343c-2.0586,11.47657 -3.45704,22.36328 -4.14844,32.36328c-0.67969,9.79688 -1.02344,19.96485 -1.02344,30.23438c0,26.72656 8.49609,48.36328 25.25,64.32031c16.54688,15.7461 38.44141,23.73438 65.06641,23.73438l246.53125,0c26.625,0 48.51172,-7.98438 65.0625,-23.73438c16.75781,-15.94531 25.2539,-37.58594 25.2539,-64.32422c-0.0039,-10.3164 -0.35156,-20.49219 -1.03515,-30.24219l0,0.00001zm0,0" id="svg_2" fill="#f4f4f4"/>
 </g>

</svg>